<?xml version='1.0' encoding='utf-8'?>
<svg xmlns:xlink="http://www.w3.org/1999/xlink" class="pygal-chart" id="chart-b6e64891-dac7-4ece-b91d-a448317f0782" viewBox="0 0 800 600" xmlns="http://www.w3.org/2000/svg"><!--Generated with pygal 2.3.0 (etree) ©Kozea 2012-2016 on 2016-11-12--><!--http://pygal.org--><!--http://github.com/Kozea/pygal--><defs><style type="text/css">/*
 * This file is part of pygal
 *
 * A python svg graph plotting library
 * Copyright © 2012 Kozea

 * This library is free software: you can redistribute it and/or modify it under
 * the terms of the GNU Lesser General Public License as published by the Free
 * Software Foundation, either version 3 of the License, or (at your option) any
 * later version.
 *
 * This library is distributed in the hope that it will be useful, but WITHOUT
 * ANY WARRANTY; without even the implied warranty of MERCHANTABILITY or FITNESS
 * FOR A PARTICULAR PURPOSE.  See the GNU Lesser General Public License for more
 * details.
 *
 * You should have received a copy of the GNU Lesser General Public License
 * along with pygal. If not, see &lt;http://www.gnu.org/licenses/&gt;.
*/

/*
 * Font-sizes from config, override with care
 */

#chart-b6e64891-dac7-4ece-b91d-a448317f0782  {
  -webkit-user-select: none;
  -webkit-font-smoothing: antialiased;
  font-family: Consolas, "Liberation Mono", Menlo, Courier, monospace;
}

#chart-b6e64891-dac7-4ece-b91d-a448317f0782 .title {
  font-family: Consolas, "Liberation Mono", Menlo, Courier, monospace;
  font-size: 16px;
}

#chart-b6e64891-dac7-4ece-b91d-a448317f0782 .legends .legend text {
  font-family: Consolas, "Liberation Mono", Menlo, Courier, monospace;
  font-size: 14px;
}

#chart-b6e64891-dac7-4ece-b91d-a448317f0782 .axis text {
  font-family: Consolas, "Liberation Mono", Menlo, Courier, monospace;
  font-size: 10px;
}

#chart-b6e64891-dac7-4ece-b91d-a448317f0782 .axis text.major {
  font-family: Consolas, "Liberation Mono", Menlo, Courier, monospace;
  font-size: 10px;
}

#chart-b6e64891-dac7-4ece-b91d-a448317f0782 .text-overlay text.value {
  font-family: Consolas, "Liberation Mono", Menlo, Courier, monospace;
  font-size: 16px;
}

#chart-b6e64891-dac7-4ece-b91d-a448317f0782 .text-overlay text.label {
  font-family: Consolas, "Liberation Mono", Menlo, Courier, monospace;
  font-size: 10px;
}

#chart-b6e64891-dac7-4ece-b91d-a448317f0782 .tooltip {
  font-family: Consolas, "Liberation Mono", Menlo, Courier, monospace;
  font-size: 14px;
}

#chart-b6e64891-dac7-4ece-b91d-a448317f0782 text.no_data {
  font-family: Consolas, "Liberation Mono", Menlo, Courier, monospace;
  font-size: 64px;
}

/*
 * This file is part of pygal
 *
 * A python svg graph plotting library
 * Copyright © 2012 Kozea

 * This library is free software: you can redistribute it and/or modify it under
 * the terms of the GNU Lesser General Public License as published by the Free
 * Software Foundation, either version 3 of the License, or (at your option) any
 * later version.
 *
 * This library is distributed in the hope that it will be useful, but WITHOUT
 * ANY WARRANTY; without even the implied warranty of MERCHANTABILITY or FITNESS
 * FOR A PARTICULAR PURPOSE.  See the GNU Lesser General Public License for more
 * details.
 *
 * You should have received a copy of the GNU Lesser General Public License
 * along with pygal. If not, see &lt;http://www.gnu.org/licenses/&gt;.
*/

/*
 * Styles from config
 */

#chart-b6e64891-dac7-4ece-b91d-a448317f0782 {
  background-color: rgba(249, 249, 249, 1);
}

#chart-b6e64891-dac7-4ece-b91d-a448317f0782 path,
#chart-b6e64891-dac7-4ece-b91d-a448317f0782 line,
#chart-b6e64891-dac7-4ece-b91d-a448317f0782 rect,
#chart-b6e64891-dac7-4ece-b91d-a448317f0782 circle {
  -webkit-transition: 150ms;
  -moz-transition: 150ms;
  transition: 150ms;
}

#chart-b6e64891-dac7-4ece-b91d-a448317f0782 .graph &gt; .background {
  fill: rgba(249, 249, 249, 1);
}

#chart-b6e64891-dac7-4ece-b91d-a448317f0782 .plot &gt; .background {
  fill: rgba(255, 255, 255, 1);
}

#chart-b6e64891-dac7-4ece-b91d-a448317f0782 .graph {
  fill: rgba(0, 0, 0, .87);
}

#chart-b6e64891-dac7-4ece-b91d-a448317f0782 text.no_data {
  fill: rgba(0, 0, 0, 1);
}

#chart-b6e64891-dac7-4ece-b91d-a448317f0782 .title {
  fill: rgba(0, 0, 0, 1);
}

#chart-b6e64891-dac7-4ece-b91d-a448317f0782 .legends .legend text {
  fill: rgba(0, 0, 0, .87);
}

#chart-b6e64891-dac7-4ece-b91d-a448317f0782 .legends .legend:hover text {
  fill: rgba(0, 0, 0, 1);
}

#chart-b6e64891-dac7-4ece-b91d-a448317f0782 .axis .line {
  stroke: rgba(0, 0, 0, 1);
}

#chart-b6e64891-dac7-4ece-b91d-a448317f0782 .axis .guide.line {
  stroke: rgba(0, 0, 0, .54);
}

#chart-b6e64891-dac7-4ece-b91d-a448317f0782 .axis .major.line {
  stroke: rgba(0, 0, 0, .87);
}

#chart-b6e64891-dac7-4ece-b91d-a448317f0782 .axis text.major {
  fill: rgba(0, 0, 0, 1);
}

#chart-b6e64891-dac7-4ece-b91d-a448317f0782 .axis.y .guides:hover .guide.line,
#chart-b6e64891-dac7-4ece-b91d-a448317f0782 .line-graph .axis.x .guides:hover .guide.line,
#chart-b6e64891-dac7-4ece-b91d-a448317f0782 .stackedline-graph .axis.x .guides:hover .guide.line,
#chart-b6e64891-dac7-4ece-b91d-a448317f0782 .xy-graph .axis.x .guides:hover .guide.line {
  stroke: rgba(0, 0, 0, 1);
}

#chart-b6e64891-dac7-4ece-b91d-a448317f0782 .axis .guides:hover text {
  fill: rgba(0, 0, 0, 1);
}


#chart-b6e64891-dac7-4ece-b91d-a448317f0782 .reactive {
  fill-opacity: .7;
  stroke-opacity: .8;
}

#chart-b6e64891-dac7-4ece-b91d-a448317f0782 .ci {
    stroke: rgba(0, 0, 0, .87);
}

#chart-b6e64891-dac7-4ece-b91d-a448317f0782 .reactive.active,
#chart-b6e64891-dac7-4ece-b91d-a448317f0782 .active .reactive {
  fill-opacity: .8;
  stroke-opacity: .9;
  stroke-width: 4;
}

#chart-b6e64891-dac7-4ece-b91d-a448317f0782 .ci .reactive.active {
  stroke-width: 1.5;
}

#chart-b6e64891-dac7-4ece-b91d-a448317f0782 .series text {
  fill: rgba(0, 0, 0, 1);
}

#chart-b6e64891-dac7-4ece-b91d-a448317f0782 .tooltip rect {
  fill: rgba(255, 255, 255, 1);
  stroke: rgba(0, 0, 0, 1);
  -webkit-transition: opacity 150ms;
  -moz-transition: opacity 150ms;
  transition: opacity 150ms;
}

#chart-b6e64891-dac7-4ece-b91d-a448317f0782 .tooltip .label {
  fill: rgba(0, 0, 0, .87);
}

#chart-b6e64891-dac7-4ece-b91d-a448317f0782 .tooltip .label {
  fill: rgba(0, 0, 0, .87);
}

#chart-b6e64891-dac7-4ece-b91d-a448317f0782 .tooltip .legend {
  font-size: .8em;
  fill: rgba(0, 0, 0, .54);
}

#chart-b6e64891-dac7-4ece-b91d-a448317f0782 .tooltip .x_label {
  font-size: .6em;
  fill: rgba(0, 0, 0, 1);
}

#chart-b6e64891-dac7-4ece-b91d-a448317f0782 .tooltip .xlink {
  font-size: .5em;
  text-decoration: underline;
}

#chart-b6e64891-dac7-4ece-b91d-a448317f0782 .tooltip .value {
  font-size: 1.5em;
}

#chart-b6e64891-dac7-4ece-b91d-a448317f0782 .bound {
  font-size: .5em;
}

#chart-b6e64891-dac7-4ece-b91d-a448317f0782 .max-value {
  font-size: .75em;
  fill: rgba(0, 0, 0, .54);
}

#chart-b6e64891-dac7-4ece-b91d-a448317f0782 .map-element {
  fill: rgba(255, 255, 255, 1);
  stroke: rgba(0, 0, 0, .54) !important;
}

#chart-b6e64891-dac7-4ece-b91d-a448317f0782 .map-element .reactive {
  fill-opacity: inherit;
  stroke-opacity: inherit;
}

#chart-b6e64891-dac7-4ece-b91d-a448317f0782 .color-0, #chart-b6e64891-dac7-4ece-b91d-a448317f0782 .color-0 a:visited {
  stroke: #F44336;
  fill: #F44336;
}

#chart-b6e64891-dac7-4ece-b91d-a448317f0782 .color-1, #chart-b6e64891-dac7-4ece-b91d-a448317f0782 .color-1 a:visited {
  stroke: #3F51B5;
  fill: #3F51B5;
}

#chart-b6e64891-dac7-4ece-b91d-a448317f0782 .color-2, #chart-b6e64891-dac7-4ece-b91d-a448317f0782 .color-2 a:visited {
  stroke: #009688;
  fill: #009688;
}

#chart-b6e64891-dac7-4ece-b91d-a448317f0782  .text-overlay .color-0 text {
  fill: black;
}

#chart-b6e64891-dac7-4ece-b91d-a448317f0782  .text-overlay .color-1 text {
  fill: black;
}

#chart-b6e64891-dac7-4ece-b91d-a448317f0782  .text-overlay .color-2 text {
  fill: black;
}




/*
 * This file is part of pygal
 *
 * A python svg graph plotting library
 * Copyright © 2012 Kozea

 * This library is free software: you can redistribute it and/or modify it under
 * the terms of the GNU Lesser General Public License as published by the Free
 * Software Foundation, either version 3 of the License, or (at your option) any
 * later version.
 *
 * This library is distributed in the hope that it will be useful, but WITHOUT
 * ANY WARRANTY; without even the implied warranty of MERCHANTABILITY or FITNESS
 * FOR A PARTICULAR PURPOSE.  See the GNU Lesser General Public License for more
 * details.
 *
 * You should have received a copy of the GNU Lesser General Public License
 * along with pygal. If not, see &lt;http://www.gnu.org/licenses/&gt;.
*/

#chart-b6e64891-dac7-4ece-b91d-a448317f0782 text.no_data {
  text-anchor: middle;
}

#chart-b6e64891-dac7-4ece-b91d-a448317f0782 .guide.line {
  fill: none;
}

#chart-b6e64891-dac7-4ece-b91d-a448317f0782 .centered {
  text-anchor: middle;
}

#chart-b6e64891-dac7-4ece-b91d-a448317f0782 .title {
  text-anchor: middle;
}

#chart-b6e64891-dac7-4ece-b91d-a448317f0782 .legends .legend text {
  fill-opacity: 1;
}

#chart-b6e64891-dac7-4ece-b91d-a448317f0782 .axis.x text {
  text-anchor: middle;
}

#chart-b6e64891-dac7-4ece-b91d-a448317f0782 .axis.x:not(.web) text[transform] {
  text-anchor: start;
}

#chart-b6e64891-dac7-4ece-b91d-a448317f0782 .axis.x:not(.web) text[transform].backwards {
  text-anchor: end;
}

#chart-b6e64891-dac7-4ece-b91d-a448317f0782 .axis.y text {
  text-anchor: end;
}

#chart-b6e64891-dac7-4ece-b91d-a448317f0782 .axis.y text[transform].backwards {
  text-anchor: start;
}

#chart-b6e64891-dac7-4ece-b91d-a448317f0782 .axis.y2 text {
  text-anchor: start;
}

#chart-b6e64891-dac7-4ece-b91d-a448317f0782 .axis.y2 text[transform].backwards {
  text-anchor: end;
}

#chart-b6e64891-dac7-4ece-b91d-a448317f0782 .axis .guide.line {
  stroke-dasharray: 4,4;
}

#chart-b6e64891-dac7-4ece-b91d-a448317f0782 .axis .major.guide.line {
  stroke-dasharray: 6,6;
}

#chart-b6e64891-dac7-4ece-b91d-a448317f0782 .horizontal .axis.y .guide.line,
#chart-b6e64891-dac7-4ece-b91d-a448317f0782 .horizontal .axis.y2 .guide.line,
#chart-b6e64891-dac7-4ece-b91d-a448317f0782 .vertical .axis.x .guide.line {
  opacity: 0;
}

#chart-b6e64891-dac7-4ece-b91d-a448317f0782 .horizontal .axis.always_show .guide.line,
#chart-b6e64891-dac7-4ece-b91d-a448317f0782 .vertical .axis.always_show .guide.line {
  opacity: 1 !important;
}

#chart-b6e64891-dac7-4ece-b91d-a448317f0782 .axis.y .guides:hover .guide.line,
#chart-b6e64891-dac7-4ece-b91d-a448317f0782 .axis.y2 .guides:hover .guide.line,
#chart-b6e64891-dac7-4ece-b91d-a448317f0782 .axis.x .guides:hover .guide.line {
  opacity: 1;
}

#chart-b6e64891-dac7-4ece-b91d-a448317f0782 .axis .guides:hover text {
  opacity: 1;
}

#chart-b6e64891-dac7-4ece-b91d-a448317f0782 .nofill {
  fill: none;
}

#chart-b6e64891-dac7-4ece-b91d-a448317f0782 .subtle-fill {
  fill-opacity: .2;
}

#chart-b6e64891-dac7-4ece-b91d-a448317f0782 .dot {
  stroke-width: 1px;
  fill-opacity: 1;
}

#chart-b6e64891-dac7-4ece-b91d-a448317f0782 .dot.active {
  stroke-width: 5px;
}

#chart-b6e64891-dac7-4ece-b91d-a448317f0782 .dot.negative {
  fill: transparent;
}

#chart-b6e64891-dac7-4ece-b91d-a448317f0782  text, #chart-b6e64891-dac7-4ece-b91d-a448317f0782  tspan {
  stroke: none !important;
}

#chart-b6e64891-dac7-4ece-b91d-a448317f0782 .series text.active {
  opacity: 1;
}

#chart-b6e64891-dac7-4ece-b91d-a448317f0782 .tooltip rect {
  fill-opacity: .95;
  stroke-width: .5;
}

#chart-b6e64891-dac7-4ece-b91d-a448317f0782 .tooltip text {
  fill-opacity: 1;
}

#chart-b6e64891-dac7-4ece-b91d-a448317f0782 .showable {
  visibility: hidden;
}

#chart-b6e64891-dac7-4ece-b91d-a448317f0782 .showable.shown {
  visibility: visible;
}

#chart-b6e64891-dac7-4ece-b91d-a448317f0782 .gauge-background {
  fill: rgba(229, 229, 229, 1);
  stroke: none;
}

#chart-b6e64891-dac7-4ece-b91d-a448317f0782 .bg-lines {
  stroke: rgba(249, 249, 249, 1);
  stroke-width: 2px;
}
</style><script type="text/javascript">window.pygal = window.pygal || {};window.pygal.config = window.pygal.config || {};window.pygal.config['b6e64891-dac7-4ece-b91d-a448317f0782'] = {"dynamic_print_values": false, "truncate_label": null, "inner_radius": 0, "print_values": false, "xrange": null, "box_mode": "extremes", "title": "PyPy: get attribute", "legend_at_bottom_columns": null, "height": 600, "legend_at_bottom": false, "show_legend": true, "show_dots": true, "explicit_size": false, "y_labels_major": null, "show_minor_x_labels": true, "width": 800, "force_uri_protocol": "https", "half_pie": false, "style": {"major_label_font_family": "Consolas, \"Liberation Mono\", Menlo, Courier, monospace", "title_font_family": "Consolas, \"Liberation Mono\", Menlo, Courier, monospace", "stroke_opacity": ".8", "legend_font_family": "Consolas, \"Liberation Mono\", Menlo, Courier, monospace", "colors": ["#F44336", "#3F51B5", "#009688", "#FFC107", "#FF5722", "#9C27B0", "#03A9F4", "#8BC34A", "#FF9800", "#E91E63", "#2196F3", "#4CAF50", "#FFEB3B", "#673AB7", "#00BCD4", "#CDDC39", "#9E9E9E", "#607D8B"], "legend_font_size": 14, "no_data_font_family": "Consolas, \"Liberation Mono\", Menlo, Courier, monospace", "major_label_font_size": 10, "value_background": "rgba(229, 229, 229, 1)", "ci_colors": [], "label_font_family": "Consolas, \"Liberation Mono\", Menlo, Courier, monospace", "label_font_size": 10, "tooltip_font_size": 14, "value_font_size": 16, "font_family": "Consolas, \"Liberation Mono\", Menlo, Courier, monospace", "opacity": ".7", "foreground": "rgba(0, 0, 0, .87)", "plot_background": "rgba(255, 255, 255, 1)", "value_label_font_size": 10, "value_label_font_family": "Consolas, \"Liberation Mono\", Menlo, Courier, monospace", "background": "rgba(249, 249, 249, 1)", "no_data_font_size": 64, "value_colors": [], "guide_stroke_dasharray": "4,4", "transition": "150ms", "foreground_subtle": "rgba(0, 0, 0, .54)", "value_font_family": "Consolas, \"Liberation Mono\", Menlo, Courier, monospace", "tooltip_font_family": "Consolas, \"Liberation Mono\", Menlo, Courier, monospace", "title_font_size": 16, "stroke_opacity_hover": ".9", "major_guide_stroke_dasharray": "6,6", "opacity_hover": ".8", "foreground_strong": "rgba(0, 0, 0, 1)"}, "x_label_rotation": 0, "fill": false, "missing_value_fill_truncation": "x", "zero": 0, "margin_right": null, "interpolation_parameters": {}, "x_labels_major": null, "rounded_bars": null, "show_y_labels": true, "dots_size": 2.5, "show_y_guides": true, "show_minor_y_labels": true, "x_labels": ["float32", "float64", "group.field", "int16", "int32", "int64", "int8", "list", "struct", "text", "uint16", "uint32", "uint64", "uint8"], "y_title": null, "order_min": null, "formatter": null, "disable_xml_declaration": false, "strict": false, "css": ["file://style.css", "file://graph.css"], "tooltip_fancy_mode": true, "defs": [], "show_only_major_dots": false, "y_label_rotation": 0, "show_x_labels": true, "min_scale": 4, "show_x_guides": false, "spacing": 10, "x_labels_major_count": null, "pretty_print": true, "tooltip_border_radius": 0, "interpolate": null, "js": ["//kozea.github.io/pygal.js/2.0.x/pygal-tooltips.min.js"], "y_labels": null, "stroke_style": null, "print_labels": false, "interpolation_precision": 250, "x_title": null, "y_labels_major_every": null, "logarithmic": false, "legends": ["Capnpy", "Instance", "NamedTuple"], "max_scale": 16, "print_zeroes": true, "no_data_text": "No data", "truncate_legend": null, "x_labels_major_every": null, "secondary_range": null, "legend_box_size": 12, "no_prefix": false, "stroke": true, "stack_from_top": false, "include_x_axis": false, "range": null, "classes": ["pygal-chart"], "margin_top": null, "margin_left": null, "y_labels_major_count": null, "margin_bottom": null, "inverse_y_axis": false, "margin": 20, "allow_interruptions": false, "print_values_position": "center"}</script><script type="text/javascript" xlink:href="https://kozea.github.io/pygal.js/2.0.x/pygal-tooltips.min.js" /></defs><title>PyPy: get attribute</title><g class="graph bar-graph vertical"><rect class="background" height="600" width="800" x="0" y="0" /><g class="plot" transform="translate(178, 46)"><rect class="background" height="514" width="602.0" x="0" y="0" /><g class="axis y"><g class="guides"><path class="axis major line" d="M0.000000 504.115385 h602.000000" /><text class="major" x="-5" y="507.615384615">0</text><title>0</title></g><g class="guides"><path class="guide line" d="M0.000000 468.921370 h602.000000" /><text class="" x="-5" y="472.421369634">1e-05</text><title>1e-05</title></g><g class="guides"><path class="guide line" d="M0.000000 433.727355 h602.000000" /><text class="" x="-5" y="437.227354653">2e-05</text><title>2e-05</title></g><g class="guides"><path class="guide line" d="M0.000000 398.533340 h602.000000" /><text class="" x="-5" y="402.033339671">3e-05</text><title>3e-05</title></g><g class="guides"><path class="guide line" d="M0.000000 363.339325 h602.000000" /><text class="" x="-5" y="366.83932469">4e-05</text><title>4e-05</title></g><g class="guides"><path class="guide line" d="M0.000000 328.145310 h602.000000" /><text class="" x="-5" y="331.645309708">5e-05</text><title>5e-05</title></g><g class="guides"><path class="guide line" d="M0.000000 292.951295 h602.000000" /><text class="" x="-5" y="296.451294727">6e-05</text><title>6e-05</title></g><g class="guides"><path class="guide line" d="M0.000000 257.757280 h602.000000" /><text class="" x="-5" y="261.257279746">7e-05</text><title>7e-05</title></g><g class="guides"><path class="guide line" d="M0.000000 222.563265 h602.000000" /><text class="" x="-5" y="226.063264764">8e-05</text><title>8e-05</title></g><g class="guides"><path class="guide line" d="M0.000000 187.369250 h602.000000" /><text class="" x="-5" y="190.869249783">9e-05</text><title>9e-05</title></g><g class="guides"><path class="guide line" d="M0.000000 152.175235 h602.000000" /><text class="" x="-5" y="155.675234802">0.0001</text><title>0.0001</title></g><g class="guides"><path class="guide line" d="M0.000000 116.981220 h602.000000" /><text class="" x="-5" y="120.48121982">0.00011</text><title>0.00011</title></g><g class="guides"><path class="guide line" d="M0.000000 81.787205 h602.000000" /><text class="" x="-5" y="85.2872048388">0.00012</text><title>0.00012</title></g><g class="guides"><path class="guide line" d="M0.000000 46.593190 h602.000000" /><text class="" x="-5" y="50.0931898575">0.00013</text><title>0.00013</title></g><g class="guides"><path class="guide line" d="M0.000000 11.399175 h602.000000" /><text class="" x="-5" y="14.8991748761">0.00014</text><title>0.00014</title></g></g><g class="axis x"><path class="line" d="M0.000000 0.000000 v514.000000" /><g class="guides"><path class="guide line" d="M32.250000 0.000000 v514.000000" /><text class="" x="32.25" y="529.0">float…</text><title>float32</title></g><g class="guides"><path class="guide line" d="M73.596154 0.000000 v514.000000" /><text class="" x="73.5961538462" y="529.0">float…</text><title>float64</title></g><g class="guides"><path class="guide line" d="M114.942308 0.000000 v514.000000" /><text class="" x="114.942307692" y="529.0">group…</text><title>group.field</title></g><g class="guides"><path class="guide line" d="M156.288462 0.000000 v514.000000" /><text class="" x="156.288461538" y="529.0">int16</text></g><g class="guides"><path class="guide line" d="M197.634615 0.000000 v514.000000" /><text class="" x="197.634615385" y="529.0">int32</text></g><g class="guides"><path class="guide line" d="M238.980769 0.000000 v514.000000" /><text class="" x="238.980769231" y="529.0">int64</text></g><g class="guides"><path class="guide line" d="M280.326923 0.000000 v514.000000" /><text class="" x="280.326923077" y="529.0">int8</text></g><g class="guides"><path class="guide line" d="M321.673077 0.000000 v514.000000" /><text class="" x="321.673076923" y="529.0">list</text></g><g class="guides"><path class="guide line" d="M363.019231 0.000000 v514.000000" /><text class="" x="363.019230769" y="529.0">struct</text></g><g class="guides"><path class="guide line" d="M404.365385 0.000000 v514.000000" /><text class="" x="404.365384615" y="529.0">text</text></g><g class="guides"><path class="guide line" d="M445.711538 0.000000 v514.000000" /><text class="" x="445.711538462" y="529.0">uint16</text></g><g class="guides"><path class="guide line" d="M487.057692 0.000000 v514.000000" /><text class="" x="487.057692308" y="529.0">uint32</text></g><g class="guides"><path class="guide line" d="M528.403846 0.000000 v514.000000" /><text class="" x="528.403846154" y="529.0">uint64</text></g><g class="guides"><path class="guide line" d="M569.750000 0.000000 v514.000000" /><text class="" x="569.75" y="529.0">uint8</text></g></g><g class="series serie-0 color-0"><g class="bars"><g class="bar"><rect class="rect reactive tooltip-trigger" height="95.2334484825" rx="0" ry="0" width="10.6728205128" x="14.7853846154" y="408.881936133" /><desc class="value">2.705955786e-05</desc><desc class="x centered">20.1217948718</desc><desc class="y centered">456.498660374</desc><desc class="x_label">float32</desc></g><g class="bar"><rect class="rect reactive tooltip-trigger" height="138.572611977" rx="0" ry="0" width="10.6728205128" x="56.1315384615" y="365.542772638" /><desc class="value">3.937391402e-05</desc><desc class="x centered">61.4679487179</desc><desc class="y centered">434.829078627</desc><desc class="x_label">float64</desc></g><g class="bar"><rect class="rect reactive tooltip-trigger" height="156.735294394" rx="0" ry="0" width="10.6728205128" x="97.4776923077" y="347.380090221" /><desc class="value">4.453464445e-05</desc><desc class="x centered">102.814102564</desc><desc class="y centered">425.747737418</desc><desc class="x_label">group.field</desc></g><g class="bar"><rect class="rect reactive tooltip-trigger" height="94.3178433591" rx="0" ry="0" width="10.6728205128" x="138.823846154" y="409.797541256" /><desc class="value">2.679939854e-05</desc><desc class="x centered">144.16025641</desc><desc class="y centered">456.956462936</desc><desc class="x_label">int16</desc></g><g class="bar"><rect class="rect reactive tooltip-trigger" height="101.092886603" rx="0" ry="0" width="10.6728205128" x="180.17" y="403.022498012" /><desc class="value">2.872445405e-05</desc><desc class="x centered">185.506410256</desc><desc class="y centered">453.568941314</desc><desc class="x_label">int32</desc></g><g class="bar"><rect class="rect reactive tooltip-trigger" height="95.8634428927" rx="0" ry="0" width="10.6728205128" x="221.516153846" y="408.251941723" /><desc class="value">2.723856398e-05</desc><desc class="x centered">226.852564103</desc><desc class="y centered">456.183663169</desc><desc class="x_label">int64</desc></g><g class="bar"><rect class="rect reactive tooltip-trigger" height="102.839019227" rx="0" ry="0" width="10.6728205128" x="262.862307692" y="401.276365389" /><desc class="value">2.922059881e-05</desc><desc class="x centered">268.198717949</desc><desc class="y centered">452.695875002</desc><desc class="x_label">int8</desc></g><g class="bar"><rect class="rect reactive tooltip-trigger" height="197.230239951" rx="0" ry="0" width="10.6728205128" x="304.208461538" y="306.885144665" /><desc class="value">5.604084673e-05</desc><desc class="x centered">309.544871795</desc><desc class="y centered">405.50026464</desc><desc class="x_label">list</desc></g><g class="bar"><rect class="rect reactive tooltip-trigger" height="191.894023955" rx="0" ry="0" width="10.6728205128" x="345.554615385" y="312.22136066" /><desc class="value">5.452461848e-05</desc><desc class="x centered">350.891025641</desc><desc class="y centered">408.168372638</desc><desc class="x_label">struct</desc></g><g class="bar"><rect class="rect reactive tooltip-trigger" height="238.257759444" rx="0" ry="0" width="10.6728205128" x="386.900769231" y="265.857625171" /><desc class="value">6.769837416e-05</desc><desc class="x centered">392.237179487</desc><desc class="y centered">384.986504893</desc><desc class="x_label">text</desc></g><g class="bar"><rect class="rect reactive tooltip-trigger" height="120.762136184" rx="0" ry="0" width="10.6728205128" x="428.246923077" y="383.353248432" /><desc class="value">3.43132593e-05</desc><desc class="x centered">433.583333333</desc><desc class="y centered">443.734316524</desc><desc class="x_label">uint16</desc></g><g class="bar"><rect class="rect reactive tooltip-trigger" height="142.735910208" rx="0" ry="0" width="10.6728205128" x="469.593076923" y="361.379474408" /><desc class="value">4.055687033e-05</desc><desc class="x centered">474.929487179</desc><desc class="y centered">432.747429511</desc><desc class="x_label">uint32</desc></g><g class="bar"><rect class="rect reactive tooltip-trigger" height="494.230769231" rx="0" ry="0" width="10.6728205128" x="510.939230769" y="9.88461538462" /><desc class="value">0.0001404303458</desc><desc class="x centered">516.275641026</desc><desc class="y centered">257.0</desc><desc class="x_label">uint64</desc></g><g class="bar"><rect class="rect reactive tooltip-trigger" height="90.3807741931" rx="0" ry="0" width="10.6728205128" x="552.285384615" y="413.734610422" /><desc class="value">2.568072277e-05</desc><desc class="x centered">557.621794872</desc><desc class="y centered">458.924997519</desc><desc class="x_label">uint8</desc></g></g></g><g class="series serie-1 color-1"><g class="bars"><g class="bar"><rect class="rect reactive tooltip-trigger" height="47.8836801105" rx="0" ry="0" width="10.6728205128" x="26.9135897436" y="456.231704505" /><desc class="value">1.360563156e-05</desc><desc class="x centered">32.25</desc><desc class="y centered">480.17354456</desc><desc class="x_label">float32</desc></g><g class="bar"><rect class="rect reactive tooltip-trigger" height="55.4025615649" rx="0" ry="0" width="10.6728205128" x="68.2597435897" y="448.712823051" /><desc class="value">1.574204068e-05</desc><desc class="x centered">73.5961538462</desc><desc class="y centered">476.414103833</desc><desc class="x_label">float64</desc></g><g class="bar"><rect class="rect reactive tooltip-trigger" height="59.9567257518" rx="0" ry="0" width="10.6728205128" x="109.605897436" y="444.158658864" /><desc class="value">1.703605735e-05</desc><desc class="x centered">114.942307692</desc><desc class="y centered">474.137021739</desc><desc class="x_label">group.field</desc></g><g class="bar"><rect class="rect reactive tooltip-trigger" height="49.9008655906" rx="0" ry="0" width="10.6728205128" x="150.952051282" y="454.214519025" /><desc class="value">1.417879308e-05</desc><desc class="x centered">156.288461538</desc><desc class="y centered">479.16495182</desc><desc class="x_label">int16</desc></g><g class="bar"><rect class="rect reactive tooltip-trigger" height="47.3101009226" rx="0" ry="0" width="10.6728205128" x="192.298205128" y="456.805283693" /><desc class="value">1.344265522e-05</desc><desc class="x centered">197.634615385</desc><desc class="y centered">480.460334154</desc><desc class="x_label">int32</desc></g><g class="bar"><rect class="rect reactive tooltip-trigger" height="55.490151174" rx="0" ry="0" width="10.6728205128" x="233.644358974" y="448.625233441" /><desc class="value">1.576692833e-05</desc><desc class="x centered">238.980769231</desc><desc class="y centered">476.370309028</desc><desc class="x_label">int64</desc></g><g class="bar"><rect class="rect reactive tooltip-trigger" height="47.3233709696" rx="0" ry="0" width="10.6728205128" x="274.990512821" y="456.792013646" /><desc class="value">1.344642576e-05</desc><desc class="x centered">280.326923077</desc><desc class="y centered">480.453699131</desc><desc class="x_label">int8</desc></g><g class="bar"><rect class="rect reactive tooltip-trigger" height="58.5525373398" rx="0" ry="0" width="10.6728205128" x="316.336666667" y="445.562847276" /><desc class="value">1.663707235e-05</desc><desc class="x centered">321.673076923</desc><desc class="y centered">474.839115945</desc><desc class="x_label">list</desc></g><g class="bar"><rect class="rect reactive tooltip-trigger" height="54.6631872755" rx="0" ry="0" width="10.6728205128" x="357.682820513" y="449.45219734" /><desc class="value">1.553195545e-05</desc><desc class="x centered">363.019230769</desc><desc class="y centered">476.783790978</desc><desc class="x_label">struct</desc></g><g class="bar"><rect class="rect reactive tooltip-trigger" height="188.030997681" rx="0" ry="0" width="10.6728205128" x="399.028974359" y="316.084386934" /><desc class="value">5.34269812e-05</desc><desc class="x centered">404.365384615</desc><desc class="y centered">410.099885775</desc><desc class="x_label">text</desc></g><g class="bar"><rect class="rect reactive tooltip-trigger" height="48.078229581" rx="0" ry="0" width="10.6728205128" x="440.375128205" y="456.037155034" /><desc class="value">1.36609107e-05</desc><desc class="x centered">445.711538462</desc><desc class="y centered">480.076269825</desc><desc class="x_label">uint16</desc></g><g class="bar"><rect class="rect reactive tooltip-trigger" height="49.1048703802" rx="0" ry="0" width="10.6728205128" x="481.721282051" y="455.010514235" /><desc class="value">1.395261962e-05</desc><desc class="x centered">487.057692308</desc><desc class="y centered">479.562949425</desc><desc class="x_label">uint32</desc></g><g class="bar"><rect class="rect reactive tooltip-trigger" height="47.0660623012" rx="0" ry="0" width="10.6728205128" x="523.067435897" y="457.049322314" /><desc class="value">1.337331428e-05</desc><desc class="x centered">528.403846154</desc><desc class="y centered">480.582353465</desc><desc class="x_label">uint64</desc></g><g class="bar"><rect class="rect reactive tooltip-trigger" height="48.0913733528" rx="0" ry="0" width="10.6728205128" x="564.413589744" y="456.024011263" /><desc class="value">1.366464536e-05</desc><desc class="x centered">569.75</desc><desc class="y centered">480.069697939</desc><desc class="x_label">uint8</desc></g></g></g><g class="series serie-2 color-2"><g class="bars"><g class="bar"><rect class="rect reactive tooltip-trigger" height="77.6114594596" rx="0" ry="0" width="10.6728205128" x="39.0417948718" y="426.503925156" /><desc class="value">2.205245963e-05</desc><desc class="x centered">44.3782051282</desc><desc class="y centered">465.309654886</desc><desc class="x_label">float32</desc></g><g class="bar"><rect class="rect reactive tooltip-trigger" height="64.2433163193" rx="0" ry="0" width="10.6728205128" x="80.3879487179" y="439.872068296" /><desc class="value">1.825404585e-05</desc><desc class="x centered">85.7243589744</desc><desc class="y centered">471.993726456</desc><desc class="x_label">float64</desc></g><g class="bar"><rect class="rect reactive tooltip-trigger" height="71.0810059781" rx="0" ry="0" width="10.6728205128" x="121.734102564" y="433.034378637" /><desc class="value">2.019690167e-05</desc><desc class="x centered">127.070512821</desc><desc class="y centered">468.574881626</desc><desc class="x_label">group.field</desc></g><g class="bar"><rect class="rect reactive tooltip-trigger" height="54.3628373198" rx="0" ry="0" width="10.6728205128" x="163.08025641" y="449.752547296" /><desc class="value">1.544661425e-05</desc><desc class="x centered">168.416666667</desc><desc class="y centered">476.933965955</desc><desc class="x_label">int16</desc></g><g class="bar"><rect class="rect reactive tooltip-trigger" height="56.699976308" rx="0" ry="0" width="10.6728205128" x="204.426410256" y="447.415408307" /><desc class="value">1.61106871e-05</desc><desc class="x centered">209.762820513</desc><desc class="y centered">475.765396461</desc><desc class="x_label">int32</desc></g><g class="bar"><rect class="rect reactive tooltip-trigger" height="58.5523859506" rx="0" ry="0" width="10.6728205128" x="245.772564103" y="445.562998665" /><desc class="value">1.663702933e-05</desc><desc class="x centered">251.108974359</desc><desc class="y centered">474.83919164</desc><desc class="x_label">int64</desc></g><g class="bar"><rect class="rect reactive tooltip-trigger" height="57.9174363924" rx="0" ry="0" width="10.6728205128" x="287.118717949" y="446.197948223" /><desc class="value">1.645661526e-05</desc><desc class="x centered">292.455128205</desc><desc class="y centered">475.156666419</desc><desc class="x_label">int8</desc></g><g class="bar"><rect class="rect reactive tooltip-trigger" height="129.911013028" rx="0" ry="0" width="10.6728205128" x="328.464871795" y="374.204371587" /><desc class="value">3.691281404e-05</desc><desc class="x centered">333.801282051</desc><desc class="y centered">439.159878101</desc><desc class="x_label">list</desc></g><g class="bar"><rect class="rect reactive tooltip-trigger" height="136.654168928" rx="0" ry="0" width="10.6728205128" x="369.811025641" y="367.461215688" /><desc class="value">3.88288091e-05</desc><desc class="x centered">375.147435897</desc><desc class="y centered">435.788300151</desc><desc class="x_label">struct</desc></g><g class="bar"><rect class="rect reactive tooltip-trigger" height="190.449689185" rx="0" ry="0" width="10.6728205128" x="411.157179487" y="313.66569543" /><desc class="value">5.411422632e-05</desc><desc class="x centered">416.493589744</desc><desc class="y centered">408.890540023</desc><desc class="x_label">text</desc></g><g class="bar"><rect class="rect reactive tooltip-trigger" height="65.6579505386" rx="0" ry="0" width="10.6728205128" x="452.503333333" y="438.457434077" /><desc class="value">1.865599892e-05</desc><desc class="x centered">457.83974359</desc><desc class="y centered">471.286409346</desc><desc class="x_label">uint16</desc></g><g class="bar"><rect class="rect reactive tooltip-trigger" height="67.0705572833" rx="0" ry="0" width="10.6728205128" x="493.849487179" y="437.044827332" /><desc class="value">1.90573759e-05</desc><desc class="x centered">499.185897436</desc><desc class="y centered">470.580105974</desc><desc class="x_label">uint32</desc></g><g class="bar"><rect class="rect reactive tooltip-trigger" height="71.3422654336" rx="0" ry="0" width="10.6728205128" x="535.195641026" y="432.773119182" /><desc class="value">2.027113572e-05</desc><desc class="x centered">540.532051282</desc><desc class="y centered">468.444251899</desc><desc class="x_label">uint64</desc></g><g class="bar"><rect class="rect reactive tooltip-trigger" height="57.165041168" rx="0" ry="0" width="10.6728205128" x="576.541794872" y="446.950343447" /><desc class="value">1.624283026e-05</desc><desc class="x centered">581.878205128</desc><desc class="y centered">475.532864031</desc><desc class="x_label">uint8</desc></g></g></g></g><g class="titles"><text class="title plot_title" x="400.0" y="26">PyPy: get attribute</text></g><g class="plot overlay" transform="translate(178, 46)"><g class="series serie-0 color-0"><g class="ci"><path class="nofill reactive" d="M20.121795 408.280531 L27.121795 408.280531 M20.121795 408.280531 L13.121795 408.280531 M20.121795 408.280531 L20.121795 409.483342 L27.121795 409.483342 M20.121795 409.483342 L13.121795 409.483342" /></g><g class="ci"><path class="nofill reactive" d="M61.467949 364.892011 L68.467949 364.892011 M61.467949 364.892011 L54.467949 364.892011 M61.467949 364.892011 L61.467949 366.193534 L68.467949 366.193534 M61.467949 366.193534 L54.467949 366.193534" /></g><g class="ci"><path class="nofill reactive" d="M102.814103 346.304707 L109.814103 346.304707 M102.814103 346.304707 L95.814103 346.304707 M102.814103 346.304707 L102.814103 348.455473 L109.814103 348.455473 M102.814103 348.455473 L95.814103 348.455473" /></g><g class="ci"><path class="nofill reactive" d="M144.160256 409.272873 L151.160256 409.272873 M144.160256 409.272873 L137.160256 409.272873 M144.160256 409.272873 L144.160256 410.322210 L151.160256 410.322210 M144.160256 410.322210 L137.160256 410.322210" /></g><g class="ci"><path class="nofill reactive" d="M185.506410 402.383902 L192.506410 402.383902 M185.506410 402.383902 L178.506410 402.383902 M185.506410 402.383902 L185.506410 403.661094 L192.506410 403.661094 M185.506410 403.661094 L178.506410 403.661094" /></g><g class="ci"><path class="nofill reactive" d="M226.852564 407.714922 L233.852564 407.714922 M226.852564 407.714922 L219.852564 407.714922 M226.852564 407.714922 L226.852564 408.788961 L233.852564 408.788961 M226.852564 408.788961 L219.852564 408.788961" /></g><g class="ci"><path class="nofill reactive" d="M268.198718 400.728952 L275.198718 400.728952 M268.198718 400.728952 L261.198718 400.728952 M268.198718 400.728952 L268.198718 401.823779 L275.198718 401.823779 M268.198718 401.823779 L261.198718 401.823779" /></g><g class="ci"><path class="nofill reactive" d="M309.544872 303.784739 L316.544872 303.784739 M309.544872 303.784739 L302.544872 303.784739 M309.544872 303.784739 L309.544872 309.985550 L316.544872 309.985550 M309.544872 309.985550 L302.544872 309.985550" /></g><g class="ci"><path class="nofill reactive" d="M350.891026 308.748886 L357.891026 308.748886 M350.891026 308.748886 L343.891026 308.748886 M350.891026 308.748886 L350.891026 315.693835 L357.891026 315.693835 M350.891026 315.693835 L343.891026 315.693835" /></g><g class="ci"><path class="nofill reactive" d="M392.237179 263.155529 L399.237179 263.155529 M392.237179 263.155529 L385.237179 263.155529 M392.237179 263.155529 L392.237179 268.559721 L399.237179 268.559721 M392.237179 268.559721 L385.237179 268.559721" /></g><g class="ci"><path class="nofill reactive" d="M433.583333 382.754438 L440.583333 382.754438 M433.583333 382.754438 L426.583333 382.754438 M433.583333 382.754438 L433.583333 383.952059 L440.583333 383.952059 M433.583333 383.952059 L426.583333 383.952059" /></g><g class="ci"><path class="nofill reactive" d="M474.929487 360.651023 L481.929487 360.651023 M474.929487 360.651023 L467.929487 360.651023 M474.929487 360.651023 L474.929487 362.107926 L481.929487 362.107926 M474.929487 362.107926 L467.929487 362.107926" /></g><g class="ci"><path class="nofill reactive" d="M516.275641 5.934854 L523.275641 5.934854 M516.275641 5.934854 L509.275641 5.934854 M516.275641 5.934854 L516.275641 13.834377 L523.275641 13.834377 M516.275641 13.834377 L509.275641 13.834377" /></g><g class="ci"><path class="nofill reactive" d="M557.621795 413.076322 L564.621795 413.076322 M557.621795 413.076322 L550.621795 413.076322 M557.621795 413.076322 L557.621795 414.392899 L564.621795 414.392899 M557.621795 414.392899 L550.621795 414.392899" /></g></g><g class="series serie-1 color-1"><g class="ci"><path class="nofill reactive" d="M32.250000 456.111520 L39.250000 456.111520 M32.250000 456.111520 L25.250000 456.111520 M32.250000 456.111520 L32.250000 456.351889 L39.250000 456.351889 M32.250000 456.351889 L25.250000 456.351889" /></g><g class="ci"><path class="nofill reactive" d="M73.596154 448.555622 L80.596154 448.555622 M73.596154 448.555622 L66.596154 448.555622 M73.596154 448.555622 L73.596154 448.870024 L80.596154 448.870024 M73.596154 448.870024 L66.596154 448.870024" /></g><g class="ci"><path class="nofill reactive" d="M114.942308 443.991910 L121.942308 443.991910 M114.942308 443.991910 L107.942308 443.991910 M114.942308 443.991910 L114.942308 444.325408 L121.942308 444.325408 M114.942308 444.325408 L107.942308 444.325408" /></g><g class="ci"><path class="nofill reactive" d="M156.288462 454.105296 L163.288462 454.105296 M156.288462 454.105296 L149.288462 454.105296 M156.288462 454.105296 L156.288462 454.323742 L163.288462 454.323742 M156.288462 454.323742 L149.288462 454.323742" /></g><g class="ci"><path class="nofill reactive" d="M197.634615 456.706990 L204.634615 456.706990 M197.634615 456.706990 L190.634615 456.706990 M197.634615 456.706990 L197.634615 456.903577 L204.634615 456.903577 M197.634615 456.903577 L190.634615 456.903577" /></g><g class="ci"><path class="nofill reactive" d="M238.980769 448.462800 L245.980769 448.462800 M238.980769 448.462800 L231.980769 448.462800 M238.980769 448.462800 L238.980769 448.787667 L245.980769 448.787667 M238.980769 448.787667 L231.980769 448.787667" /></g><g class="ci"><path class="nofill reactive" d="M280.326923 456.660317 L287.326923 456.660317 M280.326923 456.660317 L273.326923 456.660317 M280.326923 456.660317 L280.326923 456.923710 L287.326923 456.923710 M280.326923 456.923710 L273.326923 456.923710" /></g><g class="ci"><path class="nofill reactive" d="M321.673077 445.315538 L328.673077 445.315538 M321.673077 445.315538 L314.673077 445.315538 M321.673077 445.315538 L321.673077 445.810157 L328.673077 445.810157 M321.673077 445.810157 L314.673077 445.810157" /></g><g class="ci"><path class="nofill reactive" d="M363.019231 449.298005 L370.019231 449.298005 M363.019231 449.298005 L356.019231 449.298005 M363.019231 449.298005 L363.019231 449.606390 L370.019231 449.606390 M363.019231 449.606390 L356.019231 449.606390" /></g><g class="ci"><path class="nofill reactive" d="M404.365385 315.436130 L411.365385 315.436130 M404.365385 315.436130 L397.365385 315.436130 M404.365385 315.436130 L404.365385 316.732644 L411.365385 316.732644 M404.365385 316.732644 L397.365385 316.732644" /></g><g class="ci"><path class="nofill reactive" d="M445.711538 455.899861 L452.711538 455.899861 M445.711538 455.899861 L438.711538 455.899861 M445.711538 455.899861 L445.711538 456.174449 L452.711538 456.174449 M445.711538 456.174449 L438.711538 456.174449" /></g><g class="ci"><path class="nofill reactive" d="M487.057692 454.887528 L494.057692 454.887528 M487.057692 454.887528 L480.057692 454.887528 M487.057692 454.887528 L487.057692 455.133501 L494.057692 455.133501 M487.057692 455.133501 L480.057692 455.133501" /></g><g class="ci"><path class="nofill reactive" d="M528.403846 456.932046 L535.403846 456.932046 M528.403846 456.932046 L521.403846 456.932046 M528.403846 456.932046 L528.403846 457.166599 L535.403846 457.166599 M528.403846 457.166599 L521.403846 457.166599" /></g><g class="ci"><path class="nofill reactive" d="M569.750000 455.904875 L576.750000 455.904875 M569.750000 455.904875 L562.750000 455.904875 M569.750000 455.904875 L569.750000 456.143148 L576.750000 456.143148 M569.750000 456.143148 L562.750000 456.143148" /></g></g><g class="series serie-2 color-2"><g class="ci"><path class="nofill reactive" d="M44.378205 426.251515 L51.378205 426.251515 M44.378205 426.251515 L37.378205 426.251515 M44.378205 426.251515 L44.378205 426.756335 L51.378205 426.756335 M44.378205 426.756335 L37.378205 426.756335" /></g><g class="ci"><path class="nofill reactive" d="M85.724359 439.641390 L92.724359 439.641390 M85.724359 439.641390 L78.724359 439.641390 M85.724359 439.641390 L85.724359 440.102746 L92.724359 440.102746 M85.724359 440.102746 L78.724359 440.102746" /></g><g class="ci"><path class="nofill reactive" d="M127.070513 432.772053 L134.070513 432.772053 M127.070513 432.772053 L120.070513 432.772053 M127.070513 432.772053 L127.070513 433.296704 L134.070513 433.296704 M127.070513 433.296704 L120.070513 433.296704" /></g><g class="ci"><path class="nofill reactive" d="M168.416667 449.597170 L175.416667 449.597170 M168.416667 449.597170 L161.416667 449.597170 M168.416667 449.597170 L168.416667 449.907924 L175.416667 449.907924 M168.416667 449.907924 L161.416667 449.907924" /></g><g class="ci"><path class="nofill reactive" d="M209.762821 447.232544 L216.762821 447.232544 M209.762821 447.232544 L202.762821 447.232544 M209.762821 447.232544 L209.762821 447.598272 L216.762821 447.598272 M209.762821 447.598272 L202.762821 447.598272" /></g><g class="ci"><path class="nofill reactive" d="M251.108974 445.373851 L258.108974 445.373851 M251.108974 445.373851 L244.108974 445.373851 M251.108974 445.373851 L251.108974 445.752147 L258.108974 445.752147 M251.108974 445.752147 L244.108974 445.752147" /></g><g class="ci"><path class="nofill reactive" d="M292.455128 446.036627 L299.455128 446.036627 M292.455128 446.036627 L285.455128 446.036627 M292.455128 446.036627 L292.455128 446.359270 L299.455128 446.359270 M292.455128 446.359270 L285.455128 446.359270" /></g><g class="ci"><path class="nofill reactive" d="M333.801282 373.643777 L340.801282 373.643777 M333.801282 373.643777 L326.801282 373.643777 M333.801282 373.643777 L333.801282 374.764966 L340.801282 374.764966 M333.801282 374.764966 L326.801282 374.764966" /></g><g class="ci"><path class="nofill reactive" d="M375.147436 366.712650 L382.147436 366.712650 M375.147436 366.712650 L368.147436 366.712650 M375.147436 366.712650 L375.147436 368.209781 L382.147436 368.209781 M375.147436 368.209781 L368.147436 368.209781" /></g><g class="ci"><path class="nofill reactive" d="M416.493590 313.040700 L423.493590 313.040700 M416.493590 313.040700 L409.493590 313.040700 M416.493590 313.040700 L416.493590 314.290691 L423.493590 314.290691 M416.493590 314.290691 L409.493590 314.290691" /></g><g class="ci"><path class="nofill reactive" d="M457.839744 438.243951 L464.839744 438.243951 M457.839744 438.243951 L450.839744 438.243951 M457.839744 438.243951 L457.839744 438.670917 L464.839744 438.670917 M457.839744 438.670917 L450.839744 438.670917" /></g><g class="ci"><path class="nofill reactive" d="M499.185897 436.802322 L506.185897 436.802322 M499.185897 436.802322 L492.185897 436.802322 M499.185897 436.802322 L499.185897 437.287333 L506.185897 437.287333 M499.185897 437.287333 L492.185897 437.287333" /></g><g class="ci"><path class="nofill reactive" d="M540.532051 432.513533 L547.532051 432.513533 M540.532051 432.513533 L533.532051 432.513533 M540.532051 432.513533 L540.532051 433.032705 L547.532051 433.032705 M540.532051 433.032705 L533.532051 433.032705" /></g><g class="ci"><path class="nofill reactive" d="M581.878205 446.793103 L588.878205 446.793103 M581.878205 446.793103 L574.878205 446.793103 M581.878205 446.793103 L581.878205 447.107584 L588.878205 447.107584 M581.878205 447.107584 L574.878205 447.107584" /></g></g></g><g class="plot text-overlay" transform="translate(178, 46)"><g class="series serie-0 color-0" /><g class="series serie-1 color-1" /><g class="series serie-2 color-2" /></g><g class="plot tooltip-overlay" transform="translate(178, 46)"><g class="tooltip" style="opacity: 0" transform="translate(0 0)"><rect class="tooltip-box" height="0" rx="0" ry="0" width="0" /><g class="text" /></g></g><g class="legends" transform="translate(10, 56)"><g class="legend reactive activate-serie" id="activate-serie-0"><rect class="color-0 reactive" height="12" width="12" x="0.0" y="1.0" /><text x="17.0" y="11.2">Capnpy</text></g><g class="legend reactive activate-serie" id="activate-serie-1"><rect class="color-1 reactive" height="12" width="12" x="0.0" y="22.0" /><text x="17.0" y="32.2">Instance</text></g><g class="legend reactive activate-serie" id="activate-serie-2"><rect class="color-2 reactive" height="12" width="12" x="0.0" y="43.0" /><text x="17.0" y="53.2">NamedTuple</text></g></g><g class="legends" transform="translate(790, 56)" /></g></svg>